<?xml version="1.0" standalone="no"?><!DOCTYPE svg PUBLIC "-//W3C//DTD SVG 1.1//EN" "http://www.w3.org/Graphics/SVG/1.1/DTD/svg11.dtd"><svg t="1569130473906" class="icon" viewBox="0 0 1264 1024" version="1.1" xmlns="http://www.w3.org/2000/svg" p-id="1138" xmlns:xlink="http://www.w3.org/1999/xlink" width="246.875" height="200"><defs><style type="text/css"></style></defs><path d="M329.276235 6.475294h200.58353a33.882353 33.882353 0 0 1 32.587294 43.158588l-204.197647 717.312c-4.156235 14.546824-17.468235 24.606118-32.587294 24.606118h-200.58353a33.882353 33.882353 0 0 1-32.617412-43.158588L296.658824 31.081412c4.156235-14.576941 17.468235-24.606118 32.617411-24.606118zM91.437176 839.589647h199.68a33.882353 33.882353 0 0 1 32.165648 44.574118L287.623529 991.774118c-4.608 13.854118-17.558588 23.220706-32.165647 23.220706h-199.68a33.882353 33.882353 0 0 1-32.165647-44.513883l35.659294-107.670588c4.608-13.854118 17.558588-23.250824 32.165647-23.250824zM618.736941 171.068235h200.673883a33.882353 33.882353 0 0 1 32.617411 43.068236L697.012706 766.795294a33.882353 33.882353 0 0 1-32.617412 24.756706h-200.704a33.882353 33.882353 0 0 1-32.617412-43.068235L586.089412 195.764706a33.882353 33.882353 0 0 1 32.647529-24.696471z m-188.476235 668.55153h199.68a33.882353 33.882353 0 0 1 32.165647 44.574117L626.447059 991.774118c-4.608 13.854118-17.558588 23.220706-32.165647 23.220706h-199.68a33.882353 33.882353 0 0 1-32.165647-44.513883l35.659294-107.670588c4.608-13.854118 17.558588-23.250824 32.165647-23.250824zM1006.923294 6.475294h200.58353a33.882353 33.882353 0 0 1 32.587294 43.158588l-204.197647 717.312c-4.156235 14.546824-17.468235 24.606118-32.587295 24.606118h-200.583529a33.882353 33.882353 0 0 1-32.617412-43.158588l204.197647-717.312c4.156235-14.576941 17.468235-24.606118 32.617412-24.606118z m-237.839059 833.114353h199.68a33.882353 33.882353 0 0 1 32.165647 44.574118L965.270588 991.774118c-4.608 13.854118-17.558588 23.220706-32.165647 23.220706h-199.68a33.882353 33.882353 0 0 1-32.165647-44.513883l35.659294-107.670588c4.608-13.854118 17.558588-23.250824 32.165647-23.250824z" p-id="1139" fill="#8a8a8a"></path></svg>